<?xml version="1.0" encoding="UTF-8"?>
<svg id="Livello_2" data-name="Livello 2" xmlns="http://www.w3.org/2000/svg" viewBox="0 0 496.75 496.74">
  <defs>
    <style>
      .cls-1 {
        font-family: Roboto-Light, Roboto;
        font-size: 58px;
        font-weight: 300;
        stroke: #000;
        stroke-miterlimit: 10;
      }
    </style>
  </defs>
  <g id="Livello_1-2" data-name="Livello 1">
    <text class="cls-1" transform="translate(446.87 248.07) rotate(92.64)"><tspan x="0" y="0">f</tspan></text>
    <text class="cls-1" transform="translate(445.87 267.16) rotate(97.24)"><tspan x="0" y="0">i</tspan></text>
    <text class="cls-1" transform="translate(444.82 279.76) rotate(103.62)"><tspan x="0" y="0">n</tspan></text>
    <text class="cls-1" transform="translate(437.58 309.95) rotate(112.7)"><tspan x="0" y="0">d</tspan></text>
    <text class="cls-1" transform="translate(424.87 339.05) rotate(119.28)"><tspan x="0" y="0"> </tspan></text>
    <text class="cls-1" transform="translate(418.64 351.29) rotate(125.88)"><tspan x="0" y="0">o</tspan></text>
    <text class="cls-1" transform="translate(400.11 376.97) rotate(134.88)"><tspan x="0" y="0">u</tspan></text>
    <text class="cls-1" transform="translate(377.74 398.91) rotate(141.98)"><tspan x="0" y="0">t</tspan></text>
    <text class="cls-1" transform="translate(363.1 410.24) rotate(146.66)"><tspan x="0" y="0"> </tspan></text>
    <text class="cls-1" transform="translate(352.77 418.91) rotate(155.88)"><tspan x="0" y="0">m</tspan></text>
    <text class="cls-1" transform="translate(306.73 438.61) rotate(167.68)"><tspan x="0" y="0">o</tspan></text>
    <text class="cls-1" transform="translate(275.47 445.04) rotate(175.04)"><tspan x="0" y="0">r</tspan></text>
    <text class="cls-1" transform="translate(257.02 447.01) rotate(-178.2)"><tspan x="0" y="0">e</tspan></text>
    <text class="cls-1" transform="translate(227.47 445.67) rotate(-171.99)"><tspan x="0" y="0"> </tspan></text>
    <text class="cls-1" transform="translate(213.81 444.25) rotate(-165.55)"><tspan x="0" y="0">a</tspan></text>
    <text class="cls-1" transform="translate(184.46 436.8) rotate(-156.6)"><tspan x="0" y="0">b</tspan></text>
    <text class="cls-1" transform="translate(155.68 424.43) rotate(-147.5)"><tspan x="0" y="0">o</tspan></text>
    <text class="cls-1" transform="translate(128.96 407.45) rotate(-138.49)"><tspan x="0" y="0">u</tspan></text>
    <text class="cls-1" transform="translate(105.74 386.4) rotate(-131.39)"><tspan x="0" y="0">t</tspan></text>
    <text class="cls-1" transform="translate(93.56 372.44) rotate(-126.72)"><tspan x="0" y="0"> </tspan></text>
    <text class="cls-1" transform="translate(84.31 362.66) rotate(-117.52)"><tspan x="0" y="0">m</tspan></text>
    <text class="cls-1" transform="translate(61.98 317.76) rotate(-106.07)"><tspan x="0" y="0">e</tspan></text>
    <text class="cls-1" transform="translate(54.2 289.23) rotate(-99.78)"><tspan x="0" y="0"> </tspan></text>
    <text class="cls-1" transform="translate(51.76 275.42) rotate(-95.37)"><tspan x="0" y="0">-</tspan></text>
    <text class="cls-1" transform="translate(50.26 258.9) rotate(-90.99)"><tspan x="0" y="0"> </tspan></text>
    <text class="cls-1" transform="translate(49.91 244.94) rotate(-86.29)"><tspan x="0" y="0">f</tspan></text>
    <text class="cls-1" transform="translate(51.26 225.92) rotate(-81.7)"><tspan x="0" y="0">i</tspan></text>
    <text class="cls-1" transform="translate(52.54 213.34) rotate(-75.3)"><tspan x="0" y="0">n</tspan></text>
    <text class="cls-1" transform="translate(60.34 183.28) rotate(-66.23)"><tspan x="0" y="0">d</tspan></text>
    <text class="cls-1" transform="translate(73.6 154.41) rotate(-59.65)"><tspan x="0" y="0"> </tspan></text>
    <text class="cls-1" transform="translate(80.06 142.29) rotate(-53.05)"><tspan x="0" y="0">o</tspan></text>
    <text class="cls-1" transform="translate(99.06 116.96) rotate(-44.06)"><tspan x="0" y="0">u</tspan></text>
    <text class="cls-1" transform="translate(121.84 95.44) rotate(-36.96)"><tspan x="0" y="0">t</tspan></text>
    <text class="cls-1" transform="translate(136.68 84.39) rotate(-32.28)"><tspan x="0" y="0"> </tspan></text>
    <text class="cls-1" transform="translate(147.17 75.91) rotate(-23.05)"><tspan x="0" y="0">m</tspan></text>
    <text class="cls-1" transform="translate(193.58 57.08) rotate(-11.24)"><tspan x="0" y="0">o</tspan></text>
    <text class="cls-1" transform="translate(224.96 51.23) rotate(-3.9)"><tspan x="0" y="0">r</tspan></text>
    <text class="cls-1" transform="translate(243.46 49.61) rotate(2.86)"><tspan x="0" y="0">e</tspan></text>
    <text class="cls-1" transform="translate(272.95 51.49) rotate(9.08)"><tspan x="0" y="0"> </tspan></text>
    <text class="cls-1" transform="translate(286.58 53.16) rotate(15.52)"><tspan x="0" y="0">a</tspan></text>
    <text class="cls-1" transform="translate(315.79 61.17) rotate(24.47)"><tspan x="0" y="0">b</tspan></text>
    <text class="cls-1" transform="translate(344.33 74.07) rotate(33.57)"><tspan x="0" y="0">o</tspan></text>
    <text class="cls-1" transform="translate(370.75 91.56) rotate(42.58)"><tspan x="0" y="0">u</tspan></text>
    <text class="cls-1" transform="translate(393.54 113.02) rotate(49.67)"><tspan x="0" y="0">t</tspan></text>
    <text class="cls-1" transform="translate(405.47 127.2) rotate(54.35)"><tspan x="0" y="0"> </tspan></text>
    <text class="cls-1" transform="translate(414.55 137.18) rotate(63.55)"><tspan x="0" y="0">m</tspan></text>
    <text class="cls-1" transform="translate(436.02 182.46) rotate(75)"><tspan x="0" y="0">e</tspan></text>
    <text class="cls-1" transform="translate(443.28 211.13) rotate(81.29)"><tspan x="0" y="0"> </tspan></text>
    <text class="cls-1" transform="translate(445.45 225) rotate(85.69)"><tspan x="0" y="0">-</tspan></text>
    <text class="cls-1" transform="translate(446.75 241.36) rotate(90.93)"><tspan x="0" y="0"> </tspan></text>
    <text class="cls-1" transform="translate(446.63 255.61) rotate(94.07)"><tspan x="0" y="0"> </tspan></text>
  </g>
</svg>