<?xml version="1.0" encoding="UTF-8"?>
<svg id="Livello_2" data-name="Livello 2" xmlns="http://www.w3.org/2000/svg" viewBox="0 0 462.53 462.53">
  <defs>
    <style>
      .cls-1 {
        font-family: Roboto-Light, Roboto;
        font-size: 38px;
        font-weight: 300;
        stroke: #D89666;
        stroke-miterlimit: 10;
      }
    </style>
  </defs>
  <g id="Livello_1-2" data-name="Livello 1">
    <text class="cls-1" transform="translate(429.63 231.17) rotate(91.76)"><tspan x="0" y="0">f</tspan></text>
    <text class="cls-1" transform="translate(429.18 243.85) rotate(94.8)"><tspan x="0" y="0">i</tspan></text>
    <text class="cls-1" transform="translate(428.7 252.34) rotate(99.04)"><tspan x="0" y="0">n</tspan></text>
    <text class="cls-1" transform="translate(425.48 272.73) rotate(105.06)"><tspan x="0" y="0">d</tspan></text>
    <text class="cls-1" transform="translate(419.78 293.01) rotate(109.47)"><tspan x="0" y="0"> </tspan></text>
    <text class="cls-1" transform="translate(416.93 301.77) rotate(113.9)"><tspan x="0" y="0">o</tspan></text>
    <text class="cls-1" transform="translate(408.4 321.04) rotate(119.94)"><tspan x="0" y="0">u</tspan></text>
    <text class="cls-1" transform="translate(397.88 338.95) rotate(124.69)"><tspan x="0" y="0">t</tspan></text>
    <text class="cls-1" transform="translate(390.83 349.06) rotate(127.81)"><tspan x="0" y="0"> </tspan></text>
    <text class="cls-1" transform="translate(385.82 356.6) rotate(133.9)"><tspan x="0" y="0">m</tspan></text>
    <text class="cls-1" transform="translate(362.46 380.3) rotate(141.68)"><tspan x="0" y="0">o</tspan></text>
    <text class="cls-1" transform="translate(345.74 393.29) rotate(146.55)"><tspan x="0" y="0">r</tspan></text>
    <text class="cls-1" transform="translate(335.51 400.23) rotate(151.11)"><tspan x="0" y="0">e</tspan></text>
    <text class="cls-1" transform="translate(318.25 409.54) rotate(155.29)"><tspan x="0" y="0"> </tspan></text>
    <text class="cls-1" transform="translate(309.97 413.58) rotate(159.58)"><tspan x="0" y="0">a</tspan></text>
    <text class="cls-1" transform="translate(291.08 420.64) rotate(165.55)"><tspan x="0" y="0">b</tspan></text>
    <text class="cls-1" transform="translate(270.91 425.86) rotate(171.63)"><tspan x="0" y="0">o</tspan></text>
    <text class="cls-1" transform="translate(250.07 428.92) rotate(177.62)"><tspan x="0" y="0">u</tspan></text>
    <text class="cls-1" transform="translate(229.3 429.62) rotate(-177.71)"><tspan x="0" y="0">t</tspan></text>
    <text class="cls-1" transform="translate(217 429.08) rotate(-174.61)"><tspan x="0" y="0"> </tspan></text>
    <text class="cls-1" transform="translate(207.92 428.89) rotate(-168.47)"><tspan x="0" y="0">m</tspan></text>
    <text class="cls-1" transform="translate(175.44 421.82) rotate(-160.84)"><tspan x="0" y="0">e</tspan></text>
    <text class="cls-1" transform="translate(156.98 415.21) rotate(-156.65)"><tspan x="0" y="0"> </tspan></text>
    <text class="cls-1" transform="translate(148.36 411.5) rotate(-153.68)"><tspan x="0" y="0">-</tspan></text>
    <text class="cls-1" transform="translate(138.53 406.61) rotate(-150.74)"><tspan x="0" y="0"> </tspan></text>
    <text class="cls-1" transform="translate(130.37 402.09) rotate(-147.56)"><tspan x="0" y="0">f</tspan></text>
    <text class="cls-1" transform="translate(119.68 395.23) rotate(-144.49)"><tspan x="0" y="0">i</tspan></text>
    <text class="cls-1" transform="translate(112.63 390.48) rotate(-140.26)"><tspan x="0" y="0">n</tspan></text>
    <text class="cls-1" transform="translate(96.75 377.3) rotate(-134.31)"><tspan x="0" y="0">d</tspan></text>
    <text class="cls-1" transform="translate(82.18 362.05) rotate(-129.95)"><tspan x="0" y="0"> </tspan></text>
    <text class="cls-1" transform="translate(76.09 355.15) rotate(-125.58)"><tspan x="0" y="0">o</tspan></text>
    <text class="cls-1" transform="translate(63.84 338.03) rotate(-119.56)"><tspan x="0" y="0">u</tspan></text>
    <text class="cls-1" transform="translate(53.73 319.84) rotate(-114.79)"><tspan x="0" y="0">t</tspan></text>
    <text class="cls-1" transform="translate(48.61 308.65) rotate(-111.64)"><tspan x="0" y="0"> </tspan></text>
    <text class="cls-1" transform="translate(44.66 300.5) rotate(-105.47)"><tspan x="0" y="0">m</tspan></text>
    <text class="cls-1" transform="translate(36.17 268.34) rotate(-97.62)"><tspan x="0" y="0">o</tspan></text>
    <text class="cls-1" transform="translate(33.54 247.34) rotate(-92.75)"><tspan x="0" y="0">r</tspan></text>
    <text class="cls-1" transform="translate(32.8 234.96) rotate(-88.27)"><tspan x="0" y="0">e</tspan></text>
    <text class="cls-1" transform="translate(33.57 215.4) rotate(-84.14)"><tspan x="0" y="0"> </tspan></text>
    <text class="cls-1" transform="translate(34.31 206.19) rotate(-79.87)"><tspan x="0" y="0">a</tspan></text>
    <text class="cls-1" transform="translate(37.82 186.35) rotate(-73.92)"><tspan x="0" y="0">b</tspan></text>
    <text class="cls-1" transform="translate(43.58 166.32) rotate(-67.82)"><tspan x="0" y="0">o</tspan></text>
    <text class="cls-1" transform="translate(51.53 146.82) rotate(-61.77)"><tspan x="0" y="0">u</tspan></text>
    <text class="cls-1" transform="translate(61.51 128.6) rotate(-57.02)"><tspan x="0" y="0">t</tspan></text>
    <text class="cls-1" transform="translate(68.25 118.29) rotate(-53.9)"><tspan x="0" y="0"> </tspan></text>
    <text class="cls-1" transform="translate(73.04 110.6) rotate(-47.8)"><tspan x="0" y="0">m</tspan></text>
    <text class="cls-1" transform="translate(95.72 86.24) rotate(-40.26)"><tspan x="0" y="0">e</tspan></text>
    <text class="cls-1" transform="translate(110.79 73.72) rotate(-36.12)"><tspan x="0" y="0"> </tspan></text>
    <text class="cls-1" transform="translate(118.35 68.19) rotate(-33.18)"><tspan x="0" y="0">-</tspan></text>
    <text class="cls-1" transform="translate(127.58 62.18) rotate(-30.23)"><tspan x="0" y="0"> </tspan></text>
    <text class="cls-1" transform="translate(135.6 57.45) rotate(-27.06)"><tspan x="0" y="0">f</tspan></text>
    <text class="cls-1" transform="translate(146.93 51.73) rotate(-23.96)"><tspan x="0" y="0">i</tspan></text>
    <text class="cls-1" transform="translate(154.59 48.07) rotate(-19.7)"><tspan x="0" y="0">n</tspan></text>
    <text class="cls-1" transform="translate(174.02 41.1) rotate(-13.66)"><tspan x="0" y="0">d</tspan></text>
    <text class="cls-1" transform="translate(194.55 36.34) rotate(-9.26)"><tspan x="0" y="0"> </tspan></text>
    <text class="cls-1" transform="translate(203.6 34.63) rotate(-4.87)"><tspan x="0" y="0">o</tspan></text>
    <text class="cls-1" transform="translate(224.59 32.84) rotate(1.07)"><tspan x="0" y="0">u</tspan></text>
    <text class="cls-1" transform="translate(245.38 33.4) rotate(5.78)"><tspan x="0" y="0">t</tspan></text>
    <text class="cls-1" transform="translate(257.62 34.69) rotate(8.9)"><tspan x="0" y="0"> </tspan></text>
    <text class="cls-1" transform="translate(266.67 35.42) rotate(15.06)"><tspan x="0" y="0">m</tspan></text>
    <text class="cls-1" transform="translate(298.67 44.45) rotate(22.94)"><tspan x="0" y="0">o</tspan></text>
    <text class="cls-1" transform="translate(318.1 52.87) rotate(27.85)"><tspan x="0" y="0">r</tspan></text>
    <text class="cls-1" transform="translate(329.12 58.51) rotate(32.42)"><tspan x="0" y="0">e</tspan></text>
    <text class="cls-1" transform="translate(345.55 69.17) rotate(36.57)"><tspan x="0" y="0"> </tspan></text>
    <text class="cls-1" transform="translate(353.09 74.5) rotate(40.81)"><tspan x="0" y="0">a</tspan></text>
    <text class="cls-1" transform="translate(368.35 87.65) rotate(46.7)"><tspan x="0" y="0">b</tspan></text>
    <text class="cls-1" transform="translate(382.66 102.81) rotate(52.72)"><tspan x="0" y="0">o</tspan></text>
    <text class="cls-1" transform="translate(395.43 119.57) rotate(58.73)"><tspan x="0" y="0">u</tspan></text>
    <text class="cls-1" transform="translate(406.06 137.42) rotate(63.49)"><tspan x="0" y="0">t</tspan></text>
    <text class="cls-1" transform="translate(411.52 148.47) rotate(66.63)"><tspan x="0" y="0"> </tspan></text>
    <text class="cls-1" transform="translate(415.72 156.48) rotate(72.8)"><tspan x="0" y="0">m</tspan></text>
    <text class="cls-1" transform="translate(425.13 188.4) rotate(80.43)"><tspan x="0" y="0">e</tspan></text>
    <text class="cls-1" transform="translate(428.21 207.76) rotate(84.6)"><tspan x="0" y="0"> </tspan></text>
    <text class="cls-1" transform="translate(429.1 217.1) rotate(87.52)"><tspan x="0" y="0">-</tspan></text>
    <text class="cls-1" transform="translate(429.6 228.01) rotate(90.93)"><tspan x="0" y="0"> </tspan></text>
    <text class="cls-1" transform="translate(429.49 237.45) rotate(93.07)"><tspan x="0" y="0"> </tspan></text>
  </g>
</svg>