<svg width="209" height="373" viewBox="0 0 209 373" fill="none" xmlns="http://www.w3.org/2000/svg">
<path d="M104.5 125.5L25 172.5V317L104.5 366V245.75V125.5Z" fill="#FFAC71"/>
<path d="M90 4.5L12 50.5L120.5 116.5V220.5L205.5 172.5V68.5L90 4.5Z" fill="#FFAC71"/>
<path d="M104.5 125.5L25 172.5V317L104.5 366V245.75V125.5Z" stroke="#FFAC71" stroke-width="7"/>
<path d="M90 4.5L12 50.5L120.5 116.5V220.5L205.5 172.5V68.5L90 4.5Z" stroke="#FFAC71" stroke-width="7"/>
<path d="M37 157L50 148.592V125V105L37 97V157Z" fill="#FFAC71" stroke="#FFAC71" stroke-width="3"/>
<path d="M7.67381 73.4809L90.2454 123.324L103 116L7.5 58L7.67381 73.4809Z" fill="#FFAC71" stroke="#FFAC71" stroke-width="3"/>
</svg>
